<svg id="icons" enable-background="new 0 0 64 64" height="512" viewBox="0 0 64 64" width="512" xmlns="http://www.w3.org/2000/svg"><path d="m32 51h-17v2c0 3.3 2.699 6 6 6h11 11c3.3 0 6-2.7 6-6v-2z" fill="#656d78"/><path d="m15 7v44h17 17v-44z" fill="#e6e9ed"/><path d="m32 53c1.1 0 2 .891 2 2 0 1.101-.9 2-2 2-1.101 0-2-.899-2-2 0-1.109.899-2 2-2z" fill="#aab2bd"/><path d="m43.989 30v3h-7.96l-13.04-13 2.5-2.5 12.54 12.5z" fill="#fff"/><path d="m49 53v4c0 3.3-2.7 6-6 6h-22c-3.301 0-6-2.7-6-6v-4c0 3.3 2.699 6 6 6h11 11c3.3 0 6-2.7 6-6z" fill="#545c66"/><path d="m38.989 25c2.761 0 5 2.23 5 5h-5.96l-12.54-12.5 6.5-6.5 7 7v2 3z" fill="#ed5565"/><path d="m20 1h24c2.76 0 5 2.24 5 5v1h-34v-1c0-2.77 2.239-5 5-5z" fill="#656d78"/><path d="m43 60h-22c-3.859 0-7-3.141-7-7 0-.553.447-1 1-1s1 .447 1 1c0 2.757 2.243 5 5 5h22c2.757 0 5-2.243 5-5 0-.553.447-1 1-1s1 .447 1 1c0 3.859-3.141 7-7 7z"/><path d="m29.03 5c-.553 0-1.005-.448-1.005-1s.442-1 .994-1h.011c.552 0 1 .448 1 1s-.448 1-1 1z"/><path d="m35 5h-3c-.553 0-1-.448-1-1s.447-1 1-1h3c.553 0 1 .448 1 1s-.447 1-1 1z"/><path d="m49 7.002c-.553 0-1-.448-1-1 0-2.206-1.794-4-4-4-.553 0-1-.448-1-1s.447-1 1-1c3.309 0 6 2.691 6 6 0 .552-.447 1-1 1z"/><path d="m15 7c-.553 0-1-.448-1-1 0-3.309 2.691-6 6-6 .553 0 1 .448 1 1s-.447 1-1 1c-2.206 0-4 1.794-4 4 0 .552-.447 1-1 1z"/><path d="m44 2h-24c-.553 0-1-.448-1-1s.447-1 1-1h24c.553 0 1 .448 1 1s-.447 1-1 1z"/><path d="m49 8.002h-34c-.553 0-1-.448-1-1s.447-1 1-1h34c.553 0 1 .448 1 1s-.447 1-1 1z"/><path d="m43 64h-22c-3.859 0-7-3.141-7-7v-51c0-.552.447-1 1-1s1 .448 1 1v51c0 2.757 2.243 5 5 5h22c2.757 0 5-2.243 5-5v-50.998c0-.552.447-1 1-1s1 .448 1 1v50.998c0 3.859-3.141 7-7 7z"/><path d="m49 52h-34c-.553 0-1-.447-1-1s.447-1 1-1h34c.553 0 1 .447 1 1s-.447 1-1 1z"/><path d="m32 58c-1.654 0-3-1.346-3-3s1.346-3 3-3 3 1.346 3 3-1.346 3-3 3zm0-4c-.552 0-1 .448-1 1s.448 1 1 1 1-.448 1-1-.448-1-1-1z"/><path d="m43.988 34h-7.957c-.553 0-1-.447-1-1 0-.552.447-1 1-1h7.957c.553 0 1 .448 1 1 0 .553-.447 1-1 1z"/><path d="m36.031 34c-.256 0-.511-.098-.706-.292l-13.039-12.998c-.391-.39-.392-1.023-.002-1.414.391-.39 1.023-.392 1.414-.002l13.039 12.998c.391.39.392 1.022.002 1.414-.195.196-.451.294-.708.294z"/><path d="m43.988 31h-5.957c-.553 0-1-.448-1-1s.447-1 1-1h5.957c.553 0 1 .448 1 1s-.447 1-1 1z"/><path d="m38.031 31c-.256 0-.511-.097-.706-.292l-12.538-12.5c-.391-.39-.392-1.023-.002-1.414.391-.39 1.023-.392 1.414-.002l12.538 12.5c.391.39.392 1.023.002 1.414-.195.196-.451.294-.708.294z"/><path d="m43.988 34c-.553 0-1-.447-1-1v-3c0-.552.447-1 1-1s1 .448 1 1v3c0 .553-.447 1-1 1z"/><path d="m22.992 21.002c-.256 0-.512-.098-.707-.293-.391-.39-.391-1.023 0-1.414l2.501-2.502c.391-.391 1.023-.391 1.414 0 .391.39.391 1.023 0 1.414l-2.501 2.502c-.195.195-.451.293-.707.293z"/><path d="m25.493 18.5c-.256 0-.512-.098-.707-.293-.391-.39-.391-1.023 0-1.414l6.497-6.498c.391-.391 1.023-.391 1.414 0 .391.39.391 1.023 0 1.414l-6.497 6.498c-.195.195-.451.293-.707.293z"/><path d="m43.989 31c-.553 0-1-.448-1-1 0-2.206-1.794-4-4-4-.553 0-1-.448-1-1s.447-1 1-1c3.309 0 6 2.691 6 6 0 .552-.447 1-1 1z"/><path d="m38.989 26c-.553 0-1-.448-1-1v-6.998c0-.552.447-1 1-1s1 .448 1 1v6.998c0 .552-.447 1-1 1z"/><path d="m38.989 19.002c-.256 0-.512-.098-.707-.293l-6.999-7c-.391-.391-.391-1.024 0-1.414.391-.391 1.023-.391 1.414 0l6.999 7c.391.391.391 1.024 0 1.414-.195.195-.451.293-.707.293z"/><path d="m38.989 21.002h-2c-.553 0-1-.448-1-1s.447-1 1-1h2c.553 0 1 .448 1 1s-.447 1-1 1z"/><path d="m38.989 24.001h-2c-.553 0-1-.448-1-1s.447-1 1-1h2c.553 0 1 .448 1 1s-.447 1-1 1z"/><path d="m36.031 34h-16.041c-.553 0-1-.447-1-1 0-.552.447-1 1-1h16.041c.553 0 1 .448 1 1 0 .553-.447 1-1 1z"/><path d="m24.989 30h-4.998c-.553 0-1-.448-1-1s.447-1 1-1h4.998c.553 0 1 .448 1 1s-.447 1-1 1z"/><path d="m22.989 26h-2.997c-.553 0-1-.448-1-1s.447-1 1-1h2.997c.553 0 1 .448 1 1s-.447 1-1 1z"/><path d="m28.999 38.999h-8.999c-.553 0-1-.447-1-1s.447-1 1-1h8.999c.553 0 1 .447 1 1s-.447 1-1 1z"/><path d="m43.989 38.999h-2.989c-.553 0-1-.447-1-1s.447-1 1-1h2.989c.553 0 1 .447 1 1s-.447 1-1 1z"/><path d="m33.003 43h-13.003c-.553 0-1-.447-1-1s.447-1 1-1h13.003c.553 0 1 .447 1 1s-.447 1-1 1z"/><path d="m43.989 43h-2.989c-.553 0-1-.447-1-1s.447-1 1-1h2.989c.553 0 1 .447 1 1s-.447 1-1 1z"/><path d="m25.996 47.001h-5.996c-.553 0-1-.447-1-1s.447-1 1-1h5.996c.553 0 1 .447 1 1s-.447 1-1 1z"/><path d="m43.989 47.001h-2.989c-.553 0-1-.447-1-1s.447-1 1-1h2.989c.553 0 1 .447 1 1s-.447 1-1 1z"/></svg>