<svg id="Layer_5" enable-background="new 0 0 64 64" height="512" viewBox="0 0 64 64" width="512" xmlns="http://www.w3.org/2000/svg"><g><g><g><path d="m50 6h9v32.51l-10.5-9 .67-.68c.53-.53.83-1.25.83-2 0-.78-.32-1.49-.83-2s-1.22-.83-2-.83c-.75 0-1.47.3-2 .83l-6.17 6.17 4 4 2.66-2.66 6.67 5.72c-1.89.32-3.33 1.96-3.33 3.94 0 1.48.8 2.77 2 3.46v8.54l-5 8h-28l-5-8v-13.31l10 2.31h1v-12h-1l-13 3h-5v-28h9 12 12z" fill="#e6e9ed"/></g><g><path d="m62 2v4h-3-9-12-12-12-9-3v-4z" fill="#ccd1d9"/></g><g><path d="m10 34v6h-1-4c-1.66 0-3-1.34-3-3 0-.83.34-1.58.88-2.12s1.29-.88 2.12-.88z" fill="#fc6e51"/></g><g><path d="m10 40 3 .69v13.31 8h-4v-8-14z" fill="#cf9e76"/></g><g><path d="m55 54v8h-4v-8-8.54c.59.34 1.27.54 2 .54s1.41-.2 2-.54z" fill="#cf9e76"/></g><g><path d="m57 42v.06c-.02 1.46-.82 2.72-2 3.4-.59.34-1.27.54-2 .54s-1.41-.2-2-.54c-1.2-.69-2-1.98-2-3.46 0-1.98 1.44-3.62 3.33-3.94.22-.04.44-.06.67-.06 2.21 0 4 1.79 4 4z" fill="#aab2bd"/></g><g><path d="m48.5 29.51 10.5 9 2.25 1.93c.86.69 1 1.95.31 2.81-.38.48-.95.75-1.56.75-.45 0-.9-.16-1.25-.44l-1.75-1.5c0-.02 0-.04 0-.06 0-2.21-1.79-4-4-4-.23 0-.45.02-.67.06l-6.67-5.72z" fill="#cf9e76"/></g><g><path d="m50 26.83c0 .75-.3 1.47-.83 2l-.67.68-2.84 2.83-2.66 2.66-4-4 6.17-6.17c.53-.53 1.25-.83 2-.83.78 0 1.49.32 2 .83s.83 1.22.83 2z" fill="#ff826e"/></g><g><path d="m24 31v12h-1l-10-2.31-3-.69v-6l13-3z" fill="#ff826e"/></g><g><path d="m17 12v4h-6v-4h3z" fill="#fcd770"/></g><g><path d="m29 12v4h-6v-4h3z" fill="#fcd770"/></g><g><path d="m41 12v4h-6v-4h3z" fill="#fcd770"/></g><g><path d="m53 12v4h-6v-4h3z" fill="#fcd770"/></g></g><path d="m63 7v-6h-62v6h3v26.142c-1.721.447-3 1.999-3 3.858 0 2.206 1.794 4 4 4h3v12.714l-4.554 7.286h-2.446v2h62v-2h-2.446l-4.554-7.286v-7.739c.706-.534 1.274-1.238 1.618-2.067l.508.435c.529.424 1.194.657 1.873.657.913 0 1.767-.409 2.345-1.127 1.03-1.289.82-3.181-.443-4.195l-1.901-1.629v-31.049zm-60-4h58v2h-58zm0 34c0-1.103.897-2 2-2h4v4h-4c-1.103 0-2-.897-2-2zm11 20.487 2.196 3.513h-2.196zm-3-18.283v-4.408l12-2.77v9.947zm1 2.284v19.512h-2v-19.973zm-4 15.999v3.513h-2.196zm42 3.513h-2.196l2.196-3.513zm8.196 0h-2.196v-3.513zm-4.196 0h-2v-14.101c.323.066.658.101 1 .101s.677-.035 1-.101zm-1-16c-1.654 0-3-1.346-3-3s1.346-3 3-3 3 1.346 3 3-1.346 3-3 3zm7.784-2.379c-.342.423-1.027.466-1.383.182l-1.445-1.238c-.225-2.551-2.348-4.565-4.956-4.565-.113 0-.219.026-.33.033l-5.541-4.749 1.417-1.417 12.077 10.35c.432.346.502.977.161 1.404zm-12.319-14.5-5.465 5.465-2.586-2.586 5.465-5.465c.34-.34.811-.535 1.293-.535 1.008 0 1.828.82 1.828 1.828 0 .482-.195.953-.535 1.293zm9.535 8.214-8.044-6.894c.669-.712 1.044-1.632 1.044-2.613 0-2.11-1.718-3.828-3.828-3.828-1.022 0-1.984.398-2.707 1.121l-6.879 6.879 5.414 5.414 2.711-2.711 4.709 4.036c-1.444.878-2.42 2.451-2.42 4.261 0 1.627.793 3.061 2 3.974v7.739l-4.554 7.287h-26.892l-4.554-7.286v-11.764l8.775 2.025 2.225.025v-14h-2l-13.108 3h-3.892v-26h7v4h-3v6h8v-6h-3v-4h10v4h-3v6h8v-6h-3v-4h10v4h-3v6h8v-6h-3v-4h10v4h-3v6h8v-6h-3v-4h7zm-42-23.335v2h-4v-2zm12 0v2h-4v-2zm12 0v2h-4v-2zm12 0v2h-4v-2z"/></g></svg>